<svg width="2224" height="560" viewBox="0 0 2224 560" fill="none" xmlns="http://www.w3.org/2000/svg">
<path style="mix-blend-mode:screen" fill-rule="evenodd" clip-rule="evenodd" d="M240 6.99999C279.5 4.50001 299.854 26.119 324 41C359.3 62.758 396.18 81.385 431 103C453.342 116.869 479.247 124.576 490 150C495.209 162.316 494 180.766 494 198V361C494 373.347 495.829 388.221 493 399C489.952 410.061 482.988 418.807 475.5 427.5C470.607 433.247 463.675 436.913 457 441C444.753 448.5 431.7 455.217 419 463C386.385 482.984 352.084 500.737 319 521C302.683 530.994 285.366 545.041 266 551C234.989 560.541 201.242 537.835 183 526.5C174.631 521.3 164.017 517.58 164 504C164 496.5 166.199 487.5 169 478.5C173.014 465.602 177.687 452.419 183 440C194.084 442.416 206.454 444.46 218 447C241.353 452.137 271.431 446.385 289 441C351.271 421.914 387.4 379.582 405 316C420.058 261.592 402.211 197.1 387 156C383.394 146.257 377.2 115.881 368 114C366.5 114 366.5 114 366 115C339.709 170.257 288.918 166.038 233 189C185.27 208.6 146.372 238.36 126 285C113.734 313.083 112.44 352.577 122 383C125.024 392.624 125.819 411.812 137 413C145.708 397.573 149.838 379.568 159 365C182.742 327.249 219.076 298.667 262 280C268.623 277.12 274.891 272.86 283 271V272C207.609 316.956 154.988 394.879 134 494H133.5H133C124 489.5 115.111 483.952 107 479C92.612 470.215 77.359 460.81 63 452C42.243 439.266 20.894 432.611 11 409C2.39102 388.455 7.00002 331.894 7.00002 303V203C7.00002 182.85 5.90802 161.948 12 148C23.405 121.886 55.607 112.327 79 98C119.349 73.289 161.689 49.73 202 25C210.519 19.773 220.171 13.725 229 9.99999C232.6 8.48299 236.5 7.50001 240 6.99999Z" fill="url(#paint0_linear_1_2)"/>
<path d="M687.464 333.648H612.968L600.168 370H569.704L633.448 191.824H667.24L730.984 370H700.264L687.464 333.648ZM679.272 309.84L650.344 227.152L621.16 309.84H679.272ZM929.452 226.64C940.545 226.64 950.444 228.944 959.148 233.552C968.023 238.16 974.935 244.987 979.884 254.032C985.004 263.077 987.564 274 987.564 286.8V370H958.636V291.152C958.636 278.523 955.479 268.88 949.164 262.224C942.849 255.397 934.231 251.984 923.308 251.984C912.385 251.984 903.681 255.397 897.196 262.224C890.881 268.88 887.724 278.523 887.724 291.152V370H858.796V291.152C858.796 278.523 855.639 268.88 849.324 262.224C843.009 255.397 834.391 251.984 823.468 251.984C812.545 251.984 803.841 255.397 797.356 262.224C791.041 268.88 787.884 278.523 787.884 291.152V370H758.7V228.944H787.884V245.072C792.663 239.269 798.721 234.747 806.06 231.504C813.399 228.261 821.249 226.64 829.612 226.64C840.876 226.64 850.945 229.029 859.82 233.808C868.695 238.587 875.521 245.499 880.3 254.544C884.567 246.011 891.223 239.269 900.268 234.32C909.313 229.2 919.041 226.64 929.452 226.64ZM1014.97 298.832C1014.97 284.667 1017.87 272.123 1023.68 261.2C1029.65 250.277 1037.67 241.829 1047.74 235.856C1057.98 229.712 1069.24 226.64 1081.53 226.64C1092.63 226.64 1102.27 228.859 1110.46 233.296C1118.82 237.563 1125.48 242.939 1130.43 249.424V228.944H1159.87V370H1130.43V349.008C1125.48 355.664 1118.74 361.211 1110.2 365.648C1101.67 370.085 1091.94 372.304 1081.02 372.304C1068.9 372.304 1057.81 369.232 1047.74 363.088C1037.67 356.773 1029.65 348.069 1023.68 336.976C1017.87 325.712 1014.97 312.997 1014.97 298.832ZM1130.43 299.344C1130.43 289.616 1128.38 281.168 1124.28 274C1120.36 266.832 1115.15 261.371 1108.67 257.616C1102.18 253.861 1095.19 251.984 1087.68 251.984C1080.17 251.984 1073.17 253.861 1066.68 257.616C1060.2 261.2 1054.91 266.576 1050.81 273.744C1046.89 280.741 1044.92 289.104 1044.92 298.832C1044.92 308.56 1046.89 317.093 1050.81 324.432C1054.91 331.771 1060.2 337.403 1066.68 341.328C1073.34 345.083 1080.34 346.96 1087.68 346.96C1095.19 346.96 1102.18 345.083 1108.67 341.328C1115.15 337.573 1120.36 332.112 1124.28 324.944C1128.38 317.605 1130.43 309.072 1130.43 299.344ZM1224.06 346.192H1288.06V370H1190.26V346.192L1254.52 252.752H1190.26V228.944H1288.06V252.752L1224.06 346.192ZM1379.88 372.304C1366.57 372.304 1354.54 369.317 1343.79 363.344C1333.04 357.2 1324.59 348.667 1318.44 337.744C1312.3 326.651 1309.23 313.851 1309.23 299.344C1309.23 285.008 1312.39 272.293 1318.7 261.2C1325.01 250.107 1333.63 241.573 1344.56 235.6C1355.48 229.627 1367.68 226.64 1381.16 226.64C1394.65 226.64 1406.85 229.627 1417.77 235.6C1428.69 241.573 1437.31 250.107 1443.63 261.2C1449.94 272.293 1453.1 285.008 1453.1 299.344C1453.1 313.68 1449.86 326.395 1443.37 337.488C1436.89 348.581 1428.01 357.2 1416.75 363.344C1405.65 369.317 1393.37 372.304 1379.88 372.304ZM1379.88 346.96C1387.39 346.96 1394.39 345.168 1400.88 341.584C1407.53 338 1412.91 332.624 1417 325.456C1421.1 318.288 1423.15 309.584 1423.15 299.344C1423.15 289.104 1421.19 280.485 1417.26 273.488C1413.33 266.32 1408.13 260.944 1401.64 257.36C1395.16 253.776 1388.16 251.984 1380.65 251.984C1373.14 251.984 1366.15 253.776 1359.66 257.36C1353.35 260.944 1348.31 266.32 1344.56 273.488C1340.8 280.485 1338.92 289.104 1338.92 299.344C1338.92 314.533 1342.76 326.309 1350.44 334.672C1358.29 342.864 1368.11 346.96 1379.88 346.96ZM1553.12 226.64C1564.21 226.64 1574.11 228.944 1582.81 233.552C1591.69 238.16 1598.6 244.987 1603.55 254.032C1608.5 263.077 1610.97 274 1610.97 286.8V370H1582.05V291.152C1582.05 278.523 1578.89 268.88 1572.57 262.224C1566.26 255.397 1557.64 251.984 1546.72 251.984C1535.8 251.984 1527.09 255.397 1520.61 262.224C1514.29 268.88 1511.13 278.523 1511.13 291.152V370H1481.95V228.944H1511.13V245.072C1515.91 239.269 1521.97 234.747 1529.31 231.504C1536.82 228.261 1544.76 226.64 1553.12 226.64ZM1638.47 280.656C1638.47 263.248 1642.48 247.632 1650.5 233.808C1658.7 219.984 1669.7 209.232 1683.53 201.552C1697.52 193.701 1712.8 189.776 1729.35 189.776C1748.3 189.776 1765.11 194.469 1779.78 203.856C1794.63 213.072 1805.38 226.213 1812.04 243.28H1776.97C1772.36 233.893 1765.96 226.896 1757.77 222.288C1749.58 217.68 1740.1 215.376 1729.35 215.376C1717.58 215.376 1707.08 218.021 1697.86 223.312C1688.65 228.603 1681.39 236.197 1676.1 246.096C1670.98 255.995 1668.42 267.515 1668.42 280.656C1668.42 293.797 1670.98 305.317 1676.1 315.216C1681.39 325.115 1688.65 332.795 1697.86 338.256C1707.08 343.547 1717.58 346.192 1729.35 346.192C1740.1 346.192 1749.58 343.888 1757.77 339.28C1765.96 334.672 1772.36 327.675 1776.97 318.288H1812.04C1805.38 335.355 1794.63 348.496 1779.78 357.712C1765.11 366.928 1748.3 371.536 1729.35 371.536C1712.63 371.536 1697.35 367.696 1683.53 360.016C1669.7 352.165 1658.7 341.328 1650.5 327.504C1642.48 313.68 1638.47 298.064 1638.47 280.656ZM1907.38 372.304C1894.07 372.304 1882.04 369.317 1871.29 363.344C1860.54 357.2 1852.09 348.667 1845.94 337.744C1839.8 326.651 1836.73 313.851 1836.73 299.344C1836.73 285.008 1839.89 272.293 1846.2 261.2C1852.51 250.107 1861.13 241.573 1872.06 235.6C1882.98 229.627 1895.18 226.64 1908.66 226.64C1922.15 226.64 1934.35 229.627 1945.27 235.6C1956.19 241.573 1964.81 250.107 1971.13 261.2C1977.44 272.293 1980.6 285.008 1980.6 299.344C1980.6 313.68 1977.36 326.395 1970.87 337.488C1964.39 348.581 1955.51 357.2 1944.25 363.344C1933.15 369.317 1920.87 372.304 1907.38 372.304ZM1907.38 346.96C1914.89 346.96 1921.89 345.168 1928.38 341.584C1935.03 338 1940.41 332.624 1944.5 325.456C1948.6 318.288 1950.65 309.584 1950.65 299.344C1950.65 289.104 1948.69 280.485 1944.76 273.488C1940.83 266.32 1935.63 260.944 1929.14 257.36C1922.66 253.776 1915.66 251.984 1908.15 251.984C1900.64 251.984 1893.65 253.776 1887.16 257.36C1880.85 260.944 1875.81 266.32 1872.06 273.488C1868.3 280.485 1866.42 289.104 1866.42 299.344C1866.42 314.533 1870.26 326.309 1877.94 334.672C1885.79 342.864 1895.61 346.96 1907.38 346.96ZM2024.3 210.256C2019.01 210.256 2014.57 208.464 2010.99 204.88C2007.4 201.296 2005.61 196.859 2005.61 191.568C2005.61 186.277 2007.4 181.84 2010.99 178.256C2014.57 174.672 2019.01 172.88 2024.3 172.88C2029.42 172.88 2033.77 174.672 2037.35 178.256C2040.94 181.84 2042.73 186.277 2042.73 191.568C2042.73 196.859 2040.94 201.296 2037.35 204.88C2033.77 208.464 2029.42 210.256 2024.3 210.256ZM2038.63 228.944V370H2009.45V228.944H2038.63ZM2148.12 226.64C2159.21 226.64 2169.11 228.944 2177.81 233.552C2186.69 238.16 2193.6 244.987 2198.55 254.032C2203.5 263.077 2205.97 274 2205.97 286.8V370H2177.05V291.152C2177.05 278.523 2173.89 268.88 2167.57 262.224C2161.26 255.397 2152.64 251.984 2141.72 251.984C2130.8 251.984 2122.09 255.397 2115.61 262.224C2109.29 268.88 2106.13 278.523 2106.13 291.152V370H2076.95V228.944H2106.13V245.072C2110.91 239.269 2116.97 234.747 2124.31 231.504C2131.82 228.261 2139.76 226.64 2148.12 226.64Z" fill="url(#paint1_linear_1_2)"/>
<defs>
<linearGradient id="paint0_linear_1_2" x1="5.78101" y1="314.394" x2="494.562" y2="245.7" gradientUnits="userSpaceOnUse">
<stop stop-color="#1FDAB5"/>
<stop offset="0.5" stop-color="#8DE968"/>
<stop offset="1" stop-color="#C1F138"/>
</linearGradient>
<linearGradient id="paint1_linear_1_2" x1="570" y1="193" x2="2222" y2="77" gradientUnits="userSpaceOnUse">
<stop stop-color="#1FDAB5"/>
<stop offset="0.505" stop-color="#8DE968"/>
<stop offset="1" stop-color="#C1F138"/>
</linearGradient>
</defs>
</svg>
