<svg width="2274" height="548" viewBox="0 0 2274 548" fill="none" xmlns="http://www.w3.org/2000/svg">
<path style="mix-blend-mode:screen" fill-rule="evenodd" clip-rule="evenodd" d="M235 0.999987C274.5 -1.49999 294.854 20.119 319 35C354.3 56.758 391.18 75.385 426 97C448.342 110.869 474.247 118.576 485 144C490.209 156.316 489 174.766 489 192V355C489 367.347 490.829 382.221 488 393C484.952 404.061 477.988 412.807 470.5 421.5C465.607 427.247 458.675 430.913 452 435C439.753 442.5 426.7 449.217 414 457C381.385 476.984 347.084 494.737 314 515C297.683 524.994 280.366 539.041 261 545C229.989 554.541 196.242 531.835 178 520.5C169.631 515.3 159.017 511.58 159 498C159 490.5 161.199 481.5 164 472.5C168.014 459.602 172.687 446.419 178 434C189.084 436.416 201.454 438.46 213 441C236.353 446.137 266.431 440.385 284 435C346.271 415.914 382.4 373.582 400 310C415.058 255.592 397.211 191.1 382 150C378.394 140.257 372.2 109.881 363 108C361.5 108 361.5 108 361 109C334.709 164.257 283.918 160.038 228 183C180.27 202.6 141.372 232.36 121 279C108.734 307.083 107.44 346.577 117 377C120.024 386.624 120.819 405.812 132 407C140.708 391.573 144.838 373.568 154 359C177.742 321.249 214.076 292.667 257 274C263.623 271.12 269.891 266.86 278 265V266C202.609 310.956 149.988 388.879 129 488H128.5H128C119 483.5 110.111 477.952 102 473C87.612 464.215 72.359 454.81 58 446C37.243 433.266 15.894 426.611 6 403C-2.60898 382.455 2.00002 325.894 2.00002 297V197C2.00002 176.85 0.908023 155.948 7 142C18.405 115.886 50.607 106.327 74 92C114.349 67.289 156.689 43.73 197 19C205.519 13.773 215.171 7.72501 224 3.99999C227.6 2.48299 231.5 1.50001 235 0.999987Z" fill="url(#paint0_linear_3_3)"/>
<path d="M754.76 334.768H680.264L667.464 371.12H637L700.744 192.944H734.536L798.28 371.12H767.56L754.76 334.768ZM746.568 310.96L717.64 228.272L688.456 310.96H746.568ZM996.748 227.76C1007.84 227.76 1017.74 230.064 1026.44 234.672C1035.32 239.28 1042.23 246.107 1047.18 255.152C1052.3 264.197 1054.86 275.12 1054.86 287.92V371.12H1025.93V292.272C1025.93 279.643 1022.78 270 1016.46 263.344C1010.15 256.517 1001.53 253.104 990.604 253.104C979.681 253.104 970.977 256.517 964.492 263.344C958.177 270 955.02 279.643 955.02 292.272V371.12H926.092V292.272C926.092 279.643 922.935 270 916.62 263.344C910.305 256.517 901.687 253.104 890.764 253.104C879.841 253.104 871.137 256.517 864.652 263.344C858.337 270 855.18 279.643 855.18 292.272V371.12H825.996V230.064H855.18V246.192C859.959 240.389 866.017 235.867 873.356 232.624C880.695 229.381 888.545 227.76 896.908 227.76C908.172 227.76 918.241 230.149 927.116 234.928C935.991 239.707 942.817 246.619 947.596 255.664C951.863 247.131 958.519 240.389 967.564 235.44C976.609 230.32 986.337 227.76 996.748 227.76ZM1082.27 299.952C1082.27 285.787 1085.17 273.243 1090.98 262.32C1096.95 251.397 1104.97 242.949 1115.04 236.976C1125.28 230.832 1136.54 227.76 1148.83 227.76C1159.93 227.76 1169.57 229.979 1177.76 234.416C1186.12 238.683 1192.78 244.059 1197.73 250.544V230.064H1227.17V371.12H1197.73V350.128C1192.78 356.784 1186.04 362.331 1177.5 366.768C1168.97 371.205 1159.24 373.424 1148.32 373.424C1136.2 373.424 1125.11 370.352 1115.04 364.208C1104.97 357.893 1096.95 349.189 1090.98 338.096C1085.17 326.832 1082.27 314.117 1082.27 299.952ZM1197.73 300.464C1197.73 290.736 1195.68 282.288 1191.58 275.12C1187.66 267.952 1182.45 262.491 1175.97 258.736C1169.48 254.981 1162.49 253.104 1154.98 253.104C1147.47 253.104 1140.47 254.981 1133.98 258.736C1127.5 262.32 1122.21 267.696 1118.11 274.864C1114.19 281.861 1112.22 290.224 1112.22 299.952C1112.22 309.68 1114.19 318.213 1118.11 325.552C1122.21 332.891 1127.5 338.523 1133.98 342.448C1140.64 346.203 1147.64 348.08 1154.98 348.08C1162.49 348.08 1169.48 346.203 1175.97 342.448C1182.45 338.693 1187.66 333.232 1191.58 326.064C1195.68 318.725 1197.73 310.192 1197.73 300.464ZM1291.36 347.312H1355.36V371.12H1257.56V347.312L1321.82 253.872H1257.56V230.064H1355.36V253.872L1291.36 347.312ZM1447.18 373.424C1433.87 373.424 1421.84 370.437 1411.09 364.464C1400.34 358.32 1391.89 349.787 1385.74 338.864C1379.6 327.771 1376.53 314.971 1376.53 300.464C1376.53 286.128 1379.69 273.413 1386 262.32C1392.31 251.227 1400.93 242.693 1411.86 236.72C1422.78 230.747 1434.98 227.76 1448.46 227.76C1461.95 227.76 1474.15 230.747 1485.07 236.72C1495.99 242.693 1504.61 251.227 1510.93 262.32C1517.24 273.413 1520.4 286.128 1520.4 300.464C1520.4 314.8 1517.16 327.515 1510.67 338.608C1504.19 349.701 1495.31 358.32 1484.05 364.464C1472.95 370.437 1460.67 373.424 1447.18 373.424ZM1447.18 348.08C1454.69 348.08 1461.69 346.288 1468.18 342.704C1474.83 339.12 1480.21 333.744 1484.3 326.576C1488.4 319.408 1490.45 310.704 1490.45 300.464C1490.45 290.224 1488.49 281.605 1484.56 274.608C1480.63 267.44 1475.43 262.064 1468.94 258.48C1462.46 254.896 1455.46 253.104 1447.95 253.104C1440.44 253.104 1433.45 254.896 1426.96 258.48C1420.65 262.064 1415.61 267.44 1411.86 274.608C1408.1 281.605 1406.22 290.224 1406.22 300.464C1406.22 315.653 1410.06 327.429 1417.74 335.792C1425.59 343.984 1435.41 348.08 1447.18 348.08ZM1620.42 227.76C1631.51 227.76 1641.41 230.064 1650.11 234.672C1658.99 239.28 1665.9 246.107 1670.85 255.152C1675.8 264.197 1678.27 275.12 1678.27 287.92V371.12H1649.35V292.272C1649.35 279.643 1646.19 270 1639.87 263.344C1633.56 256.517 1624.94 253.104 1614.02 253.104C1603.1 253.104 1594.39 256.517 1587.91 263.344C1581.59 270 1578.43 279.643 1578.43 292.272V371.12H1549.25V230.064H1578.43V246.192C1583.21 240.389 1589.27 235.867 1596.61 232.624C1604.12 229.381 1612.06 227.76 1620.42 227.76ZM1705.77 281.776C1705.77 264.368 1709.78 248.752 1717.8 234.928C1726 221.104 1737 210.352 1750.83 202.672C1764.82 194.821 1780.1 190.896 1796.65 190.896C1815.6 190.896 1832.41 195.589 1847.08 204.976C1861.93 214.192 1872.68 227.333 1879.34 244.4H1844.27C1839.66 235.013 1833.26 228.016 1825.07 223.408C1816.88 218.8 1807.4 216.496 1796.65 216.496C1784.88 216.496 1774.38 219.141 1765.16 224.432C1755.95 229.723 1748.69 237.317 1743.4 247.216C1738.28 257.115 1735.72 268.635 1735.72 281.776C1735.72 294.917 1738.28 306.437 1743.4 316.336C1748.69 326.235 1755.95 333.915 1765.16 339.376C1774.38 344.667 1784.88 347.312 1796.65 347.312C1807.4 347.312 1816.88 345.008 1825.07 340.4C1833.26 335.792 1839.66 328.795 1844.27 319.408H1879.34C1872.68 336.475 1861.93 349.616 1847.08 358.832C1832.41 368.048 1815.6 372.656 1796.65 372.656C1779.93 372.656 1764.65 368.816 1750.83 361.136C1737 353.285 1726 342.448 1717.8 328.624C1709.78 314.8 1705.77 299.184 1705.77 281.776ZM1974.68 373.424C1961.37 373.424 1949.34 370.437 1938.59 364.464C1927.84 358.32 1919.39 349.787 1913.24 338.864C1907.1 327.771 1904.03 314.971 1904.03 300.464C1904.03 286.128 1907.19 273.413 1913.5 262.32C1919.81 251.227 1928.43 242.693 1939.36 236.72C1950.28 230.747 1962.48 227.76 1975.96 227.76C1989.45 227.76 2001.65 230.747 2012.57 236.72C2023.49 242.693 2032.11 251.227 2038.43 262.32C2044.74 273.413 2047.9 286.128 2047.9 300.464C2047.9 314.8 2044.66 327.515 2038.17 338.608C2031.69 349.701 2022.81 358.32 2011.55 364.464C2000.45 370.437 1988.17 373.424 1974.68 373.424ZM1974.68 348.08C1982.19 348.08 1989.19 346.288 1995.68 342.704C2002.33 339.12 2007.71 333.744 2011.8 326.576C2015.9 319.408 2017.95 310.704 2017.95 300.464C2017.95 290.224 2015.99 281.605 2012.06 274.608C2008.13 267.44 2002.93 262.064 1996.44 258.48C1989.96 254.896 1982.96 253.104 1975.45 253.104C1967.94 253.104 1960.95 254.896 1954.46 258.48C1948.15 262.064 1943.11 267.44 1939.36 274.608C1935.6 281.605 1933.72 290.224 1933.72 300.464C1933.72 315.653 1937.56 327.429 1945.24 335.792C1953.09 343.984 1962.91 348.08 1974.68 348.08ZM2091.6 211.376C2086.31 211.376 2081.87 209.584 2078.29 206C2074.7 202.416 2072.91 197.979 2072.91 192.688C2072.91 187.397 2074.7 182.96 2078.29 179.376C2081.87 175.792 2086.31 174 2091.6 174C2096.72 174 2101.07 175.792 2104.65 179.376C2108.24 182.96 2110.03 187.397 2110.03 192.688C2110.03 197.979 2108.24 202.416 2104.65 206C2101.07 209.584 2096.72 211.376 2091.6 211.376ZM2105.93 230.064V371.12H2076.75V230.064H2105.93ZM2215.42 227.76C2226.51 227.76 2236.41 230.064 2245.11 234.672C2253.99 239.28 2260.9 246.107 2265.85 255.152C2270.8 264.197 2273.27 275.12 2273.27 287.92V371.12H2244.35V292.272C2244.35 279.643 2241.19 270 2234.87 263.344C2228.56 256.517 2219.94 253.104 2209.02 253.104C2198.1 253.104 2189.39 256.517 2182.91 263.344C2176.59 270 2173.43 279.643 2173.43 292.272V371.12H2144.25V230.064H2173.43V246.192C2178.21 240.389 2184.27 235.867 2191.61 232.624C2199.12 229.381 2207.06 227.76 2215.42 227.76Z" fill="url(#paint1_linear_3_3)"/>
<defs>
<linearGradient id="paint0_linear_3_3" x1="0.781015" y1="308.394" x2="489.562" y2="239.7" gradientUnits="userSpaceOnUse">
<stop stop-color="#1FDAB5"/>
<stop offset="0.5" stop-color="#8DE968"/>
<stop offset="1" stop-color="#C1F138"/>
</linearGradient>
<linearGradient id="paint1_linear_3_3" x1="637.296" y1="194.12" x2="2289.3" y2="78.12" gradientUnits="userSpaceOnUse">
<stop stop-color="#1FDAB5"/>
<stop offset="0.505" stop-color="#8DE968"/>
<stop offset="1" stop-color="#C1F138"/>
</linearGradient>
</defs>
</svg>
